<svg width="44" height="28" viewBox="0 0 44 28" fill="none" xmlns="http://www.w3.org/2000/svg">
<path d="M42.9548 3.29657L40.837 1.17817C40.1032 0.4818 39.2461 0.133514 38.2677 0.133514C37.2691 0.133514 36.4222 0.4818 35.7255 1.17817L22.0001 14.904L8.27467 1.17857C7.5781 0.482196 6.73098 0.133911 5.73281 0.133911C4.75393 0.133911 3.89702 0.482196 3.16306 1.17857L1.07315 3.29697C0.357584 4.01204 0 4.86895 0 5.86692C0 6.88349 0.357979 7.73071 1.07305 8.40839L19.4581 26.7935C20.1362 27.5087 20.983 27.8666 22 27.8666C22.9978 27.8666 23.8546 27.5088 24.5695 26.7935L42.9547 8.40839C43.6513 7.71162 43.9999 6.8645 43.9999 5.86692C44 4.88755 43.6514 4.03113 42.9548 3.29657Z" fill="#D5896F"/>
</svg>
