<svg width="351" height="273" viewBox="0 0 351 273" fill="none" xmlns="http://www.w3.org/2000/svg">
<g clip-path="url(#clip0)">
<path d="M318.095 223.893C314.796 220.382 307.162 217.374 296.938 215.383V170.132H296.47V169.664H288.028V170.132H274.764C275.952 163.285 279.917 139.412 279.118 129.824C279.118 129.824 289.424 101.706 280.992 78.271C280.992 78.271 289.434 80.1451 290.362 70.7713C291.119 63.2034 299.805 46.4825 289.83 36.8619C287.489 34.4064 284.008 32.3764 278.982 31.0154L276.543 24.1946C278.134 21.6773 279.118 18.2799 279.118 14.5349C279.118 9.49075 277.345 5.07018 274.689 2.58869C273.16 0.964674 271.293 -0.00973511 269.276 -0.00973511C267.741 0.0138196 266.256 0.546129 265.055 1.50385C265.231 1.63702 265.4 1.77993 265.568 1.92934C262.487 4.23219 260.373 9.00354 260.373 14.5187C260.373 18.6924 261.591 22.4309 263.516 25.0066L262.247 33.2663C262.247 33.2663 236.011 26.715 247.259 70.7713C247.259 70.7713 250.07 78.271 254.756 78.271C254.756 78.271 251.944 112.015 256.629 124.201C256.629 124.201 254.756 154.197 258.506 160.758V170.132H235.076V216.546C223.081 219.294 215.396 223.513 215.396 228.239C215.396 236.525 238.891 243.238 267.874 243.238C296.856 243.238 320.348 236.538 320.348 228.249C320.348 226.735 319.556 225.274 318.095 223.893Z" fill="#FFF1E6"/>
<path d="M133.425 228.811C130.364 225.543 123.253 222.747 113.723 220.892V178.781H113.288V178.346H105.44V178.781H93.1011C94.2083 172.412 97.8969 150.199 97.1533 141.273C97.1533 141.273 106.745 115.104 98.8969 93.2964C98.8969 93.2964 106.745 95.0406 107.618 86.3196C108.323 79.2779 116.405 63.7166 107.122 54.765C104.943 52.4914 101.706 50.5913 97.0299 49.3311L94.757 42.9714C96.2409 40.6263 97.1533 37.4693 97.1533 33.9809C97.1533 29.2875 95.5071 25.1755 93.0329 22.8661C91.6107 21.3525 89.8735 20.4626 87.9968 20.4626C86.5694 20.4852 85.1898 20.981 84.0744 21.8722C84.2368 21.9957 84.3991 22.1288 84.5517 22.2652C81.6846 24.4089 79.7137 28.849 79.7137 33.9809C79.7137 37.8785 80.8501 41.3442 82.636 43.725L81.4541 51.4098C81.4541 51.4098 57.0399 45.3035 67.492 86.3034C67.492 86.3034 70.1091 93.2801 74.4698 93.2801C74.4698 93.2801 71.8527 124.682 76.2134 136.024C76.2134 136.024 74.4698 163.938 77.9571 170.044V178.765H56.1697V221.964C45.0098 224.52 37.8567 228.46 37.8567 232.854C37.8567 240.562 59.7219 246.821 86.6915 246.821C113.661 246.821 135.523 240.572 135.523 232.854C135.523 231.454 134.786 230.094 133.425 228.811Z" fill="#FFF1E6"/>
<path d="M205.272 226.612C202.999 224.176 197.693 222.094 190.595 220.713V189.35H190.271V189.025H184.426V189.35H175.237C176.062 184.605 178.809 168.056 178.257 161.417C178.257 161.417 185.4 141.929 179.555 125.689C179.555 125.689 185.4 126.988 186.049 120.492C186.575 115.247 192.595 103.658 185.679 96.9894C184.056 95.2874 181.647 93.881 178.163 92.9423L176.474 88.197C177.68 86.174 178.299 83.8547 178.26 81.4995C178.26 78.0046 177.033 74.9418 175.188 73.2203C174.13 72.0932 172.837 71.4306 171.441 71.4306C170.378 71.4482 169.35 71.8183 168.519 72.483C168.642 72.5739 168.759 72.6714 168.876 72.7753C166.74 74.3701 165.272 77.6766 165.272 81.4995C165.272 84.3935 166.119 86.9854 167.454 88.7686L166.571 94.4949C166.571 94.4949 148.388 89.9476 156.18 120.479C156.18 120.479 158.129 125.676 161.376 125.676C161.376 125.676 159.427 149.062 162.674 157.507C162.674 157.507 161.376 178.294 163.973 182.841V189.337H147.738V221.493C139.426 223.396 134.101 226.323 134.101 229.613C134.101 235.355 150.385 240.007 170.467 240.007C190.55 240.007 206.833 235.352 206.833 229.613C206.833 228.58 206.285 227.567 205.272 226.612Z" fill="#FFF1E6"/>
<path d="M337.739 231.932C336.395 230.496 333.275 229.269 329.093 228.453V209.972H328.901V209.78H325.456V209.972H320.04C320.527 207.175 322.147 197.422 321.819 193.508C321.819 193.508 326.04 182.019 322.586 172.448C322.586 172.448 326.031 173.214 326.414 169.385C326.738 166.296 330.271 159.465 326.196 155.535C325.238 154.531 323.816 153.703 321.764 153.151L320.767 150.358C321.479 149.166 321.844 147.799 321.819 146.411C321.819 144.352 321.095 142.546 320.011 141.539C319.736 141.219 319.397 140.96 319.016 140.778C318.636 140.597 318.221 140.496 317.799 140.484C317.173 140.495 316.568 140.713 316.079 141.104C316.151 141.158 316.22 141.215 316.286 141.276C315.03 142.215 314.166 144.164 314.166 146.418C314.135 147.947 314.59 149.447 315.465 150.702L314.945 154.077C314.945 154.077 304.23 151.397 308.822 169.391C308.822 169.391 309.971 172.454 311.883 172.454C311.883 172.454 310.737 186.239 312.65 191.215C312.65 191.215 311.883 203.469 313.416 206.156V209.985H303.831V228.944C298.931 230.064 295.791 231.789 295.791 233.722C295.791 237.106 305.389 239.851 317.221 239.851C329.054 239.851 338.652 237.106 338.652 233.722C338.661 233.091 338.337 232.494 337.739 231.932Z" fill="#FFF1E6"/>
<path d="M58.4978 231.932C57.1536 230.496 54.0332 229.269 49.8511 228.453V209.972H49.6595V209.78H46.2145V209.972H40.7985C41.2855 207.175 42.9058 197.422 42.5778 193.508C42.5778 193.508 46.7989 182.019 43.3441 172.448C43.3441 172.448 46.7892 173.214 47.1723 169.385C47.4808 166.296 51.0297 159.465 46.9548 155.535C45.9807 154.531 44.5747 153.703 42.5226 153.151L41.5258 150.358C42.2377 149.166 42.6021 147.799 42.5778 146.411C42.5778 144.352 41.8537 142.546 40.7692 141.539C40.4942 141.219 40.1555 140.96 39.7748 140.778C39.3941 140.597 38.9797 140.496 38.558 140.484C37.9317 140.495 37.3266 140.713 36.8371 141.104C36.9094 141.158 36.9788 141.215 37.0449 141.276C35.7884 142.215 34.9247 144.164 34.9247 146.418C34.8897 147.943 35.3375 149.44 36.204 150.696L35.6845 154.07C35.6845 154.07 24.9694 151.391 29.5606 169.385C29.5606 169.385 30.7101 172.448 32.6225 172.448C32.6225 172.448 31.4764 186.232 33.3888 191.208C33.3888 191.208 32.6225 203.463 34.1551 206.149V209.979H24.5895V228.937C19.6898 230.058 16.5499 231.783 16.5499 233.715C16.5499 237.1 26.148 239.844 37.9801 239.844C49.8121 239.844 59.4102 237.1 59.4102 233.715C59.42 233.091 59.0953 232.494 58.4978 231.932Z" fill="#FFF1E6"/>
<path d="M0 233.332H351C351 233.332 338.012 268.644 304.74 256.068C271.468 243.492 251.584 258.504 233.322 265.403C215.061 272.302 178.542 277.583 169.211 267.027C159.879 256.471 151.352 251.602 118.489 255.659C85.6265 259.716 64.1119 268.242 60.0434 256.877C55.9749 245.512 55.1729 241.858 32.0446 243.885C8.91624 245.911 0 233.332 0 233.332Z" fill="#DB3A34"/>
<path d="M206.1 120.161C202.158 126.865 201.554 134.933 200.226 142.592C198.141 154.46 194.057 165.906 191.998 177.781C191.28 181.935 190.816 186.148 189.676 190.205C188.111 195.778 185.319 200.923 182.699 206.071C178.237 214.867 174.188 224.013 172.522 233.735C172.003 236.765 172.409 240.88 175.409 241.53C176.266 241.721 177.231 241.569 177.961 242.056C178.39 242.339 178.663 242.797 179.007 243.177C180.325 244.632 182.595 244.801 184.478 244.271C186.361 243.742 188.004 242.579 189.751 241.673C196.687 238.1 204.908 238.525 212.688 239.032C214.12 239.123 215.727 239.302 216.633 240.419C217.091 240.987 217.282 241.718 217.623 242.368C218.831 244.723 222.02 245.817 224.416 244.7C225.312 244.281 226.082 243.609 227.014 243.264C229.861 242.202 232.858 244.505 235.907 244.521C240.29 244.541 243.589 239.896 247.97 239.737C250.957 239.63 253.688 241.666 256.675 241.686C258.915 241.686 260.98 240.555 262.929 239.454L276.241 231.932C272.682 226.953 268.323 222.598 263.341 219.044C259.675 216.445 258.685 211.248 256.448 207.351C254.97 204.772 253.477 202.154 252.756 199.273C252.236 197.194 252.132 195.031 251.619 192.949C250.908 190.078 249.444 187.463 248.281 184.745C243.671 173.974 243.826 161.684 239.602 150.754C238.414 147.675 236.884 144.729 235.829 141.601C234.439 137.483 233.897 133.117 232.494 129.005C231.092 124.893 228.598 120.856 224.621 119.086C222.894 118.376 221.057 117.976 219.192 117.907C214.545 117.608 210.412 118.407 206.1 120.161Z" fill="#3F3D56"/>
<path d="M223.426 65.5387H204.905V90.2432H223.426V65.5387Z" fill="#FBC661"/>
<path d="M222.926 84.7021C221.984 84.5559 221.023 84.7021 220.071 84.7021C217.73 84.6728 217.065 87.5019 214.73 87.7325C211.883 88.0118 207.934 86.2092 205.554 87.8007C205.119 88.104 204.658 88.3692 204.177 88.5932C202.229 89.4507 199.849 89.1324 198.067 90.2984C196.284 91.4645 195.631 93.7673 195.631 95.898C195.587 96.6604 195.697 97.424 195.956 98.1424C196.206 98.7498 196.622 99.276 196.872 99.8834C197.047 100.312 197.138 100.77 197.284 101.212C197.682 102.223 198.229 103.169 198.908 104.018L203.031 109.757C204.113 111.264 203.681 113.129 203.856 114.977C203.986 116.396 204.317 117.799 204.314 119.222C204.311 120.645 203.921 122.145 202.859 123.12C205.301 122.97 207.735 122.746 210.162 122.447C212.162 122.201 214.155 121.905 216.165 121.762C220.386 121.463 224.627 121.85 228.829 122.236C228.134 121.372 227.819 120.167 227.647 119.073C227.075 115.441 226.715 111.638 227.91 108.163C228.293 107.123 228.743 106.11 229.257 105.129L230.54 102.547C232.355 98.896 234.05 95.1542 234.436 91.0942C234.581 90.0517 234.457 88.9895 234.076 88.0086C233.514 86.7516 232.3 85.8681 230.991 85.4394C229.663 85.0606 228.274 84.9394 226.9 85.0821C225.621 85.1438 224.205 84.897 222.926 84.7021Z" fill="#3F3D56"/>
<path d="M209.593 82.9936C209.889 83.7666 210.243 84.5949 210.012 85.3939C209.584 86.979 207.395 87.3005 206.441 88.6419C206.357 88.7328 206.3 88.8443 206.274 88.9647C206.249 89.0852 206.256 89.2104 206.294 89.3273C206.34 89.4055 206.4 89.4748 206.47 89.5319C208.252 91.0845 210.831 91.2176 213.194 91.1916C216.639 91.1592 220.318 90.8668 223.049 88.7784C223.812 88.1937 224.53 87.2193 224.14 86.3391C223.838 85.6667 223.042 85.4134 222.383 85.0821C220.906 84.3383 219.847 82.9222 219.263 81.3729C218.679 79.8235 218.529 78.1508 218.503 76.5008C218.529 76.2185 218.468 75.935 218.328 75.6888C218.101 75.364 217.678 75.3153 217.279 75.2893C215.054 75.1407 212.819 75.23 210.613 75.5556C209.99 75.6466 208.801 75.731 208.363 76.241C207.924 76.7509 208.178 77.355 208.262 77.9104C208.526 79.647 208.972 81.3508 209.593 82.9936V82.9936Z" fill="#FBB3B2"/>
<path opacity="0.05" d="M209.593 82.9936C209.889 83.7666 210.243 84.5949 210.012 85.3939C209.584 86.979 207.395 87.3005 206.441 88.6419C206.357 88.7328 206.3 88.8443 206.274 88.9647C206.249 89.0852 206.256 89.2104 206.294 89.3273C206.34 89.4055 206.4 89.4748 206.47 89.5319C208.252 91.0845 210.831 91.2176 213.194 91.1916C216.639 91.1592 220.318 90.8668 223.049 88.7784C223.812 88.1937 224.53 87.2193 224.14 86.3391C223.838 85.6667 223.042 85.4134 222.383 85.0821C220.906 84.3383 219.847 82.9222 219.263 81.3729C218.679 79.8235 218.529 78.1508 218.503 76.5008C218.529 76.2185 218.468 75.935 218.328 75.6888C218.101 75.364 217.678 75.3153 217.279 75.2893C215.054 75.1407 212.819 75.23 210.613 75.5556C209.99 75.6466 208.801 75.731 208.363 76.241C207.924 76.7509 208.178 77.355 208.262 77.9104C208.526 79.647 208.972 81.3508 209.593 82.9936V82.9936Z" fill="black"/>
<path d="M213.785 79.843C218.378 79.843 222.101 76.1188 222.101 71.5248C222.101 66.9308 218.378 63.2066 213.785 63.2066C209.193 63.2066 205.47 66.9308 205.47 71.5248C205.47 76.1188 209.193 79.843 213.785 79.843Z" fill="#FBB3B2"/>
<path opacity="0.1" d="M221.714 243.277C221.056 243.566 220.427 243.916 219.834 244.323C220.568 244.786 221.403 245.063 222.267 245.131C223.131 245.199 223.999 245.056 224.796 244.713C225.426 244.417 225.991 243.998 226.595 243.657C224.932 243.138 223.299 242.686 221.714 243.277Z" fill="black"/>
<path opacity="0.1" d="M184.458 241.689C183.053 242.41 181.711 243.29 180.26 243.891C181.578 244.677 183.341 244.713 184.858 244.274C186.741 243.726 188.384 242.582 190.128 241.676C193.933 239.727 198.128 238.964 202.421 238.753C196.2 238.545 189.93 238.876 184.458 241.689Z" fill="black"/>
<path opacity="0.1" d="M263.714 219.04C260.048 216.442 259.061 211.245 256.821 207.348C255.344 204.769 253.85 202.151 253.129 199.27C252.61 197.191 252.506 195.028 251.993 192.946C251.285 190.075 249.82 187.46 248.658 184.741C244.047 173.971 244.2 161.68 239.979 150.751C238.787 147.672 237.258 144.726 236.203 141.598C234.816 137.479 234.254 133.114 232.868 129.002C231.481 124.89 228.971 120.853 224.994 119.082C223.296 118.322 221.422 118.027 219.565 117.903C217.998 117.8 216.426 117.827 214.863 117.985C216.403 118.113 217.912 118.486 219.334 119.089C223.302 120.859 225.806 124.896 227.208 129.008C228.611 133.12 229.157 137.486 230.543 141.604C231.598 144.732 233.141 147.678 234.316 150.757C238.537 161.687 238.385 173.977 242.995 184.748C244.161 187.466 245.625 190.081 246.333 192.952C246.846 195.034 246.95 197.198 247.47 199.276C248.19 202.157 249.684 204.775 251.161 207.354C253.399 211.252 254.389 216.429 258.055 219.047C263.039 222.598 267.4 226.951 270.962 231.929L257.649 239.451C256.536 240.118 255.368 240.69 254.158 241.16C255.1 241.481 256.086 241.657 257.081 241.683C259.318 241.683 261.383 240.552 263.331 239.451L276.644 231.929C273.077 226.946 268.708 222.591 263.714 219.04V219.04Z" fill="black"/>
<path opacity="0.1" d="M242.671 239.75C239.238 239.873 236.469 242.754 233.319 243.972C234.274 244.295 235.27 244.48 236.277 244.521C239.803 244.521 242.628 241.536 245.879 240.279C244.847 239.921 243.762 239.741 242.671 239.75V239.75Z" fill="black"/>
<path d="M213.282 119.125V112.989H210.305C210.464 112.07 210.996 108.858 210.889 107.568C210.889 107.568 212.275 103.787 211.142 100.637C211.294 100.674 211.451 100.675 211.603 100.642C211.755 100.608 211.897 100.54 212.019 100.443C212.141 100.345 212.238 100.222 212.305 100.081C212.371 99.9399 212.405 99.7857 212.402 99.63C212.526 98.3698 214.292 95.2192 210.889 94.3357L210.542 93.3613C210.777 92.9693 210.897 92.5192 210.889 92.0621C210.889 91.0195 210.324 90.1718 209.629 90.1718C208.934 90.1718 208.369 91.0195 208.369 92.0621C208.357 92.5659 208.505 93.0605 208.791 93.475L208.619 94.5988C208.619 94.5988 205.093 93.7153 206.606 99.6398C206.606 99.6398 206.983 100.647 207.613 100.647C207.613 100.647 207.236 105.194 207.866 106.818C207.866 106.818 207.613 110.849 208.116 111.732V112.992H204.966V119.232C203.343 119.602 202.32 120.171 202.32 120.807C202.32 121.921 205.48 122.824 209.376 122.824C213.272 122.824 216.432 121.921 216.432 120.807C216.432 120.102 215.182 119.485 213.282 119.125Z" fill="#6C63FF"/>
<path opacity="0.1" d="M209.691 92.0004C209.699 92.4571 209.58 92.907 209.347 93.2996L209.691 94.274C213.094 95.1542 211.331 98.3048 211.204 99.565C211.206 99.7208 211.173 99.8751 211.107 100.016C211.04 100.157 210.943 100.281 210.821 100.378C210.699 100.476 210.557 100.544 210.405 100.578C210.253 100.612 210.096 100.611 209.944 100.575C211.077 103.726 209.691 107.506 209.691 107.506C209.798 108.806 209.266 112.005 209.106 112.927H210.243C210.402 112.005 210.938 108.796 210.831 107.506C210.831 107.506 212.214 103.726 211.081 100.575C211.232 100.611 211.39 100.612 211.542 100.578C211.694 100.544 211.836 100.476 211.957 100.378C212.079 100.281 212.177 100.157 212.243 100.016C212.309 99.8751 212.343 99.7208 212.34 99.565C212.467 98.3048 214.23 95.1542 210.831 94.274L210.483 93.2996C210.718 92.9074 210.838 92.4574 210.831 92.0004C210.831 90.9578 210.266 90.11 209.571 90.11C209.364 90.1133 209.164 90.1852 209.003 90.3147C209.234 90.5275 209.416 90.7889 209.535 91.0804C209.654 91.3718 209.708 91.686 209.691 92.0004V92.0004Z" fill="black"/>
<path opacity="0.1" d="M213.22 119.06V112.927H212.087V119.06C213.983 119.423 215.237 120.034 215.237 120.739C215.237 121.801 212.379 122.668 208.743 122.749H209.311C213.207 122.749 216.367 121.847 216.367 120.732C216.37 120.041 215.113 119.423 213.22 119.06Z" fill="black"/>
<path d="M216.587 59.8449C213.99 59.1953 211.197 58.6984 208.723 59.6955C207.587 60.1989 206.543 60.887 205.632 61.732C204.791 62.4628 203.973 63.2716 203.525 64.2947C202.989 65.529 203.051 66.9256 203.018 68.2703C202.986 69.615 202.807 71.0571 201.914 72.0608C201.567 72.4505 201.116 72.7688 200.891 73.243C200.567 73.8926 200.781 74.6949 201.099 75.3543C201.418 76.0136 201.843 76.6372 201.989 77.3583C202.187 78.3554 201.801 79.3883 201.252 80.2458C200.703 81.1033 199.989 81.8438 199.421 82.6916C198.852 83.5393 198.411 84.7541 198.927 85.6862C199.252 86.2871 199.921 86.6606 200.258 87.2518C200.421 87.5344 200.502 87.8624 200.674 88.1385C201.151 88.8953 202.155 89.0804 203.041 89.1714C204.46 89.3208 206.041 89.3663 207.142 88.4568C207.899 87.8332 208.282 86.862 208.467 85.8974C208.652 84.9327 208.658 83.9485 208.83 82.9741C208.954 82.2791 209.155 81.584 209.097 80.8824C209.015 79.947 208.473 79.1252 208.048 78.284C207.407 77.116 207.108 75.7912 207.184 74.4611C207.311 73.1424 208.006 71.8399 209.168 71.213C209.986 70.7615 210.996 70.6479 211.691 70.0242C212.792 69.0498 212.626 67.3219 212.824 65.8635C212.851 65.5386 212.956 65.2251 213.133 64.9508C213.477 64.4831 214.107 64.3564 214.691 64.3012C216.052 64.1843 217.497 64.3304 218.636 65.0872C219.693 65.8374 220.424 66.9615 220.682 68.2313C220.932 69.4937 220.909 70.7951 220.614 72.0478C220.659 71.4989 221.503 71.3494 221.893 71.723C222.283 72.0965 222.302 72.7396 222.192 73.2788C221.737 75.5524 219.679 77.1764 218.987 79.3851C218.713 80.2952 218.678 81.2608 218.886 82.1883C219.094 83.1158 219.538 83.9738 220.175 84.6793C220.346 84.8887 220.571 85.048 220.825 85.1406C221.085 85.1911 221.35 85.2042 221.614 85.1795C222.65 85.1795 223.539 85.8909 224.328 86.5664C225.117 87.242 225.952 87.9663 227.004 88.0475C228.056 88.1288 229.189 87.1803 228.877 86.1897C228.764 85.8938 228.583 85.629 228.348 85.4167C227.699 84.7476 226.848 84.2214 226.4 83.4029C225.617 82.029 226.095 80.3108 226.588 78.8069C227.082 77.3031 227.562 75.5816 226.76 74.2142C226.384 73.5646 225.754 73.0774 225.462 72.3888C225.301 71.9902 225.216 71.5649 225.211 71.1351C225.143 69.563 225.536 67.9617 225.211 66.4287C225.018 65.6894 224.679 64.9961 224.215 64.3893C223.75 63.7825 223.17 63.2745 222.507 62.8948C221.834 62.4851 221.102 62.1796 220.338 61.9886C220.042 61.9139 219.594 61.9302 219.386 61.7093C219.179 61.4884 219.107 61.0954 218.844 60.8486C218.208 60.3029 217.363 60.0366 216.587 59.8449Z" fill="#FBC661"/>
<path opacity="0.05" d="M221.893 69.9755C221.752 69.8528 221.575 69.7784 221.389 69.7632C221.203 69.748 221.016 69.7928 220.857 69.891C220.849 70.5809 220.774 71.2684 220.633 71.9438C220.776 71.4858 221.529 71.3819 221.893 71.7392C221.966 71.8113 222.028 71.8933 222.078 71.9828C222.124 71.8344 222.162 71.6837 222.192 71.5313C222.302 70.9921 222.286 70.362 221.893 69.9755Z" fill="black"/>
<path opacity="0.05" d="M225.179 69.3876C225.182 69.5169 225.192 69.6459 225.208 69.7741C225.303 68.8864 225.324 67.9922 225.27 67.101C225.198 67.861 225.167 68.6243 225.179 69.3876V69.3876Z" fill="black"/>
<path opacity="0.05" d="M220.633 71.9438C220.624 71.979 220.617 72.015 220.614 72.0514L220.633 71.9438Z" fill="black"/>
<path opacity="0.05" d="M226.046 80.7817C226.171 80.1203 226.345 79.469 226.565 78.8329C226.958 77.6441 227.335 76.3157 227.078 75.1334C226.958 75.7953 226.787 76.4469 226.565 77.0822C226.173 78.258 225.789 79.5929 226.046 80.7817Z" fill="black"/>
<path opacity="0.05" d="M220.682 68.2346C220.739 68.4886 220.783 68.7455 220.812 69.0043C220.905 68.1584 220.861 67.3028 220.682 66.4709C220.425 65.1997 219.693 64.0743 218.636 63.3235C217.497 62.57 216.039 62.4206 214.691 62.5375C214.113 62.5895 213.477 62.7162 213.133 63.1871C212.956 63.4602 212.851 63.7726 212.824 64.0966C212.626 65.5582 212.792 67.2764 211.691 68.2573C210.996 68.8842 209.986 68.9978 209.168 69.4493C208.006 70.0989 207.311 71.3981 207.184 72.6973C207.143 73.1665 207.16 73.6389 207.236 74.1037C207.325 73.5053 207.546 72.9342 207.883 72.4319C208.22 71.9296 208.664 71.5087 209.184 71.2C210.003 70.7485 211.012 70.6349 211.707 70.0112C212.808 69.0368 212.642 67.3089 212.84 65.8505C212.867 65.5255 212.973 65.2121 213.149 64.9378C213.493 64.4701 214.123 64.3434 214.707 64.2882C216.068 64.1713 217.513 64.3174 218.653 65.0742C219.706 65.8312 220.432 66.9613 220.682 68.2346V68.2346Z" fill="black"/>
<path opacity="0.05" d="M228.549 85.6602C228.355 85.8764 228.114 86.0467 227.846 86.159C227.578 86.2713 227.288 86.3228 226.997 86.3098C225.961 86.2286 225.108 85.5043 224.322 84.8287C223.536 84.1532 222.643 83.4548 221.607 83.4418C221.344 83.4649 221.078 83.4518 220.818 83.4029C220.565 83.3091 220.341 83.1499 220.169 82.9416C219.449 82.1523 218.977 81.1684 218.812 80.1126C218.679 80.931 218.732 81.7688 218.967 82.5638C219.202 83.3589 219.612 84.0908 220.169 84.7053C220.34 84.9147 220.564 85.074 220.818 85.1665C221.078 85.217 221.344 85.2302 221.607 85.2055C222.643 85.2055 223.533 85.9168 224.322 86.5924C225.111 87.268 225.945 87.9923 226.997 88.0735C228.049 88.1547 229.183 87.2063 228.871 86.2156C228.802 86.0107 228.693 85.8218 228.549 85.6602V85.6602Z" fill="black"/>
<path opacity="0.05" d="M201.911 77.0595C202.052 76.5841 202.079 76.0822 201.989 75.5946C201.843 74.8768 201.414 74.2532 201.099 73.5938C201.034 73.4596 200.976 73.3232 200.924 73.1846C200.924 73.2041 200.901 73.2235 200.891 73.2463C200.567 73.8959 200.781 74.6982 201.099 75.3575C201.409 75.9053 201.68 76.474 201.911 77.0595V77.0595Z" fill="black"/>
<path opacity="0.05" d="M209.002 80.353C208.947 80.642 208.882 80.9279 208.83 81.2169C208.658 82.1913 208.649 83.1657 208.467 84.1402C208.285 85.1146 207.899 86.089 207.142 86.6996C206.041 87.6058 204.46 87.5636 203.041 87.4142C202.155 87.3232 201.151 87.1348 200.674 86.3813C200.502 86.102 200.421 85.7772 200.258 85.4913C199.934 84.8937 199.262 84.5169 198.927 83.9258C198.904 83.8868 198.885 83.8413 198.865 83.7991C198.741 84.1012 198.683 84.4261 198.693 84.7525C198.704 85.0789 198.784 85.3993 198.927 85.6927C199.252 86.2936 199.921 86.6671 200.258 87.2583C200.421 87.5408 200.502 87.8689 200.674 88.145C201.151 88.9018 202.155 89.0869 203.041 89.1778C204.46 89.3273 206.041 89.3727 207.142 88.4633C207.899 87.8397 208.282 86.8685 208.467 85.9038C208.652 84.9392 208.658 83.955 208.83 82.9806C208.954 82.2855 209.155 81.5905 209.097 80.8889C209.08 80.7079 209.049 80.5287 209.002 80.353V80.353Z" fill="black"/>
<path d="M196.904 92.6955C196.904 92.6955 195.281 93.5789 194.258 101.77C193.235 109.962 192.745 118.66 192.745 118.66C192.745 118.66 192.745 125.971 199.674 126.222C199.674 126.222 202.447 126.728 203.33 127.358C204.213 127.989 218.071 123.701 211.519 122.811C204.966 121.921 202.573 122.304 202.573 122.304C202.573 122.304 199.044 120.031 199.044 117.894C199.044 115.756 202.573 103.044 202.573 103.044L196.904 92.6955Z" fill="#FBB3B2"/>
<path d="M196.878 99.1201C197.054 99.5488 197.144 100.007 197.291 100.449C197.688 101.46 198.235 102.406 198.914 103.255C199.739 104.405 201.064 107.113 201.885 108.263C202.377 106.576 203.098 104.964 204.028 103.472L196.911 91.9419C196.911 91.9419 196.352 92.2407 195.687 94.1181C195.651 94.4591 195.631 94.8002 195.628 95.1347C195.583 95.8971 195.694 96.6607 195.953 97.3791C196.213 97.9865 196.628 98.5127 196.878 99.1201Z" fill="#3F3D56"/>
<path d="M221.283 75.7603C221.282 75.6827 221.258 75.607 221.214 75.5437C221.169 75.4803 221.106 75.4323 221.033 75.4062V74.9807C221.106 74.9551 221.169 74.9072 221.214 74.8437C221.259 74.7802 221.283 74.7044 221.283 74.6267C221.284 74.5567 221.265 74.4877 221.229 74.4275C221.194 74.3672 221.142 74.318 221.08 74.2853C221.018 74.2526 220.948 74.2376 220.879 74.2421C220.809 74.2465 220.741 74.2702 220.684 74.3105C220.627 74.3508 220.582 74.4061 220.554 74.4704C220.526 74.5347 220.517 74.6054 220.527 74.6747C220.536 74.7441 220.565 74.8093 220.61 74.8633C220.654 74.9173 220.713 74.958 220.779 74.9807V75.4062C220.706 75.432 220.642 75.4801 220.596 75.5438C220.551 75.6075 220.527 75.6837 220.527 75.7619C220.527 75.84 220.551 75.9162 220.596 75.98C220.642 76.0437 220.706 76.0918 220.779 76.1175V76.5398C220.706 76.5656 220.642 76.6137 220.596 76.6774C220.551 76.7411 220.527 76.8173 220.527 76.8954C220.527 76.9736 220.551 77.0498 220.596 77.1135C220.642 77.1772 220.706 77.2253 220.779 77.2511V77.6766C220.696 77.7064 220.625 77.7649 220.581 77.8415C220.536 77.9182 220.52 78.0082 220.535 78.0957C220.55 78.1832 220.595 78.2625 220.663 78.3197C220.731 78.3769 220.817 78.4082 220.906 78.4082C220.995 78.4082 221.081 78.3769 221.148 78.3197C221.216 78.2625 221.262 78.1832 221.277 78.0957C221.292 78.0082 221.276 77.9182 221.231 77.8415C221.186 77.7649 221.116 77.7064 221.033 77.6766V77.2511C221.106 77.2253 221.17 77.1772 221.215 77.1135C221.261 77.0498 221.285 76.9736 221.285 76.8954C221.285 76.8173 221.261 76.7411 221.215 76.6774C221.17 76.6137 221.106 76.5656 221.033 76.5398V76.1175C221.106 76.0913 221.17 76.0428 221.214 75.9788C221.259 75.9147 221.283 75.8384 221.283 75.7603Z" fill="#EEEFF3"/>
<path d="M233.443 87.6545C235.38 90.8965 236.783 94.4289 237.599 98.1164C238.859 104.041 239.742 105.301 239.742 105.301C239.742 105.301 245.288 119.417 239.112 120.3C232.936 121.184 222.104 120.3 222.104 120.3C222.104 120.3 200.18 124.081 207.866 119.04C215.552 113.999 221.607 114.626 221.607 114.626C221.607 114.626 230.806 114.376 232.066 113.493L234.459 113.243L228.79 97.1096L233.443 87.6545Z" fill="#FBB3B2"/>
<path d="M227.585 96.9179L230.228 103.089C232.014 99.4871 234.069 95.073 234.449 91.0715C234.485 90.3307 234.469 89.5883 234.4 88.8498C234.111 88.2473 233.728 87.6939 233.267 87.2095L227.585 96.9179Z" fill="#3F3D56"/>
<path d="M141.234 168.004C141.234 168.004 134.861 181.276 139.286 185.959C143.712 190.643 146.702 167.485 146.702 167.485L141.234 168.004Z" fill="#A0616A"/>
<path d="M110.404 230.068L103.261 239.045C103.261 239.045 88.8215 244.771 102.089 245.541C102.089 245.541 108.583 245.022 109.882 244.109C111.18 243.196 111.963 241.377 114.564 242.42C117.165 243.462 120.158 241.377 120.158 241.377C120.158 241.377 120.548 231.227 117.947 230.058C115.346 228.889 110.404 230.068 110.404 230.068Z" fill="#36344A"/>
<path d="M137.072 233.319L135.38 240.737C135.38 240.737 131.607 249.585 137.072 248.282C142.537 246.98 145.267 245.551 145.787 242.949C146.306 240.348 147.735 237.483 147.735 237.483C147.735 237.483 146.173 233.449 144.744 233.319C143.316 233.189 137.072 233.319 137.072 233.319Z" fill="#36344A"/>
<path d="M102.209 143.664C102.209 143.664 97.5267 175.819 100.78 193.358C104.034 210.898 107.924 228.882 107.924 228.882C107.924 228.882 103.378 239.276 118.963 232.396C118.963 232.396 117.924 206.63 114.801 196.613C111.677 186.596 116.405 173.071 117.704 172.681C117.704 172.681 122.899 198.838 127.98 207.435C133.062 216.033 135.887 236.054 135.887 236.054C135.887 236.054 146.816 237.483 146.686 234.621C146.556 231.76 144.605 207.556 138.244 198.968C138.244 198.968 132.779 184.654 136.296 169.82C139.812 154.986 132.523 149.909 132.523 149.909L120.951 136.248L109.375 133.65L102.209 143.664Z" fill="#3F3D56"/>
<path d="M136.536 88.2652C136.414 88.6887 136.217 89.0869 135.955 89.4409C135.683 89.7323 135.362 89.9732 135.007 90.1523C133.864 90.7974 132.654 91.3169 131.399 91.7016C131.075 92.3512 131.601 93.082 132.101 93.6082L133.568 95.1607C134.426 96.0637 135.283 96.9666 136.208 97.7981C137.997 99.4042 140.028 100.719 142.225 101.696C143.374 102.206 144.858 102.569 145.78 101.715C146.702 100.861 146.472 99.3604 147.03 98.2464C147.101 98.18 147.155 98.0981 147.189 98.0073C147.222 97.9164 147.234 97.819 147.224 97.7228C147.213 97.6265 147.181 97.5339 147.129 97.4523C147.077 97.3707 147.006 97.3023 146.923 97.2525C146.17 96.5087 146.017 95.3329 146.176 94.287C146.336 93.2411 146.761 92.2537 147.004 91.2241C147.248 90.1945 147.293 89.0447 146.745 88.1385C146.422 87.6565 146.004 87.2453 145.517 86.9302C144.451 86.1736 143.263 85.6066 142.004 85.2542C141.355 85.0756 140.705 84.9554 140.056 84.7638C139.653 84.6404 138.562 83.8868 138.218 83.9485C137.51 84.0655 136.786 87.5084 136.536 88.2652Z" fill="#A0616A"/>
<path opacity="0.1" d="M136.536 88.2652C136.414 88.6887 136.217 89.0869 135.955 89.4409C135.683 89.7323 135.362 89.9732 135.007 90.1523C133.864 90.7974 132.654 91.3169 131.399 91.7016C131.075 92.3512 131.601 93.082 132.101 93.6082L133.568 95.1607C134.426 96.0637 135.283 96.9666 136.208 97.7981C137.997 99.4042 140.028 100.719 142.225 101.696C143.374 102.206 144.858 102.569 145.78 101.715C146.702 100.861 146.472 99.3604 147.03 98.2464C147.101 98.18 147.155 98.0981 147.189 98.0073C147.222 97.9164 147.234 97.819 147.224 97.7228C147.213 97.6265 147.181 97.5339 147.129 97.4523C147.077 97.3707 147.006 97.3023 146.923 97.2525C146.17 96.5087 146.017 95.3329 146.176 94.287C146.336 93.2411 146.761 92.2537 147.004 91.2241C147.248 90.1945 147.293 89.0447 146.745 88.1385C146.422 87.6565 146.004 87.2453 145.517 86.9302C144.451 86.1736 143.263 85.6066 142.004 85.2542C141.355 85.0756 140.705 84.9554 140.056 84.7638C139.653 84.6404 138.562 83.8868 138.218 83.9485C137.51 84.0655 136.786 87.5084 136.536 88.2652Z" fill="black"/>
<path d="M135.078 90.6005C135.062 90.3439 135.033 90.0451 134.815 89.9054C134.688 89.8356 134.544 89.8051 134.4 89.8177C131.328 89.8177 128.837 92.2342 126.906 94.6183C122.834 99.6365 119.622 105.301 116.84 111.138C115.129 114.733 113.541 118.777 114.642 122.607C114.99 123.742 115.507 124.819 116.177 125.799C117.1 127.201 118.22 128.462 119.502 129.544C119.984 130.007 120.58 130.333 121.23 130.486C122.204 130.642 123.129 130.106 123.96 129.59C125.629 128.55 127.291 127.5 128.945 126.439C131.63 124.718 134.315 122.967 136.682 120.83C139.049 118.693 141.105 116.14 142.27 113.171C142.767 111.911 143.098 110.573 143.657 109.351C144.507 107.471 145.881 105.811 146.368 103.804C146.599 102.846 146.618 101.855 146.865 100.897C147.06 100.133 147.397 99.4124 147.56 98.6426C147.722 97.8728 147.683 97.0186 147.193 96.3885C146.368 95.3426 144.764 95.4985 143.459 95.7681C141.757 96.1189 138.725 96.9829 137.104 95.9532C135.718 95.0665 135.176 92.1076 135.078 90.6005Z" fill="#FFF1E6"/>
<path d="M134.211 96.8205L132.39 96.9504L131.091 96.4275L132.133 93.3061C132.133 93.3061 135.802 93.7218 136.179 94.8781C136.179 94.8781 136.452 95.6739 136.893 95.7908C137.335 95.9078 139.166 95.6479 139.546 96.5574C139.926 97.4668 139.806 102.404 137.335 101.754L136.166 98.6296L135.643 97.8501C135.643 97.8501 134.081 97.6 134.211 96.8205Z" fill="#DB3A34"/>
<path d="M119.249 125.838C119.249 125.838 123.282 99.2922 135.9 89.7852C135.9 89.7852 136.03 87.3135 133.818 87.5733C131.607 87.8332 122.373 86.011 122.373 86.011L113.658 102.93C113.658 102.93 111.71 118.673 110.274 121.275C108.839 123.877 99.8678 144.57 99.8678 144.57C99.8678 144.57 104.943 161.615 112.486 138.723C112.486 138.723 106.641 157.331 123.152 159.153C139.663 160.976 137.721 158.111 137.721 158.111L139.669 144.579V134.426L143.313 127.28L158.142 108.413C158.142 108.413 148.076 94.4721 146.154 95.7161C146.157 95.7031 133.688 115.428 119.249 125.838Z" fill="#3F3D56"/>
<path d="M124.324 87.0601L122.376 86.0175C122.376 86.0175 116.392 88.2294 114.31 96.8205C114.31 96.8205 109.239 100.462 105.868 103.196C105.868 103.196 101.322 94.7515 101.322 91.8737C101.322 91.8737 93.7764 96.9504 92.0847 95.6479C92.0847 95.6479 96.6305 116.598 105.225 115.035C113.82 113.473 117.054 108.4 117.054 108.4L124.324 87.0601Z" fill="#3F3D56"/>
<path d="M153.203 109.182L158.145 108.4C158.145 108.4 161.268 112.564 155.674 118.68L152.29 139.37C152.29 139.37 152.68 146.265 151.511 151.472C150.342 156.678 148.517 172.681 148.517 172.681C148.517 172.681 142.537 170.469 139.283 170.859L144.225 122.857L153.203 109.182Z" fill="#3F3D56"/>
<path d="M101.04 93.2996C101.04 93.2996 98.306 76.9035 93.6238 83.0196C88.9416 89.1356 94.1433 97.5935 94.1433 97.5935L101.04 93.2996Z" fill="#A0616A"/>
<path d="M146.504 94.1539C152.323 94.1539 157.041 89.435 157.041 83.614C157.041 77.793 152.323 73.0742 146.504 73.0742C140.685 73.0742 135.968 77.793 135.968 83.614C135.968 89.435 140.685 94.1539 146.504 94.1539Z" fill="#A0616A"/>
<path d="M154.927 72.2426C154.686 71.9427 154.469 71.6245 154.278 71.291C153.644 70.362 152.654 69.7547 151.68 69.209C149.897 68.2346 147.865 67.3186 145.881 67.7928C144.507 68.1176 143.342 69.0921 141.959 69.3714C140.575 69.6507 138.932 69.3422 138 70.3815C137.069 71.4209 137.481 73.0579 136.679 74.133C136.234 74.7274 135.409 75.2731 135.633 75.9811C135.728 76.2799 136.004 76.4911 136.13 76.7801C136.354 77.2868 136.078 77.8682 136.065 78.4236C136.049 79.2454 136.611 79.9502 137.007 80.6713C137.403 81.3923 137.617 82.3992 137.007 82.9644C139.073 81.3112 141.338 79.9222 143.748 78.8297C143.744 79.1631 143.657 79.4903 143.494 79.7813C144.799 79.589 146.091 79.3145 147.362 78.9596L146.693 80.2425L149.563 78.9888C150.339 78.6478 151.313 78.3392 151.976 78.8589C152.281 79.1501 152.495 79.5235 152.592 79.934C152.971 81.1072 153.196 82.3245 153.261 83.5555C153.333 84.9457 153.261 86.4788 154.161 87.5409C154.416 87.8099 154.723 88.0238 155.064 88.1691C155.405 88.3145 155.772 88.3882 156.142 88.3858C156.513 88.3833 156.879 88.3048 157.218 88.155C157.557 88.0052 157.861 87.7873 158.112 87.5149C158.366 86.5405 157.986 85.5336 157.966 84.5332C157.937 83.0748 158.671 81.7041 158.804 80.2523C158.976 78.4171 157.892 77.3291 157.398 75.705C157.206 75.0814 157.323 74.3441 156.956 73.7562C156.482 73.0287 155.515 72.8663 154.927 72.2426Z" fill="#3F3D56"/>
<path d="M93.692 101.969L97.4488 95.6577L94.3836 93.8323C95.1109 92.9813 97.6306 90.0061 98.3027 88.6159C98.3027 88.6159 102.043 85.5758 102.806 81.6392C102.806 81.6392 103.819 82.5941 104.722 81.3728C105.625 80.1516 109.365 77.9949 106.407 75.0035L106.644 73.7919C107.126 73.5327 107.525 73.1433 107.797 72.6681C108.446 71.593 108.372 70.3945 107.657 69.9528C106.943 69.511 105.842 70.0502 105.203 71.1253C104.884 71.6356 104.734 72.2334 104.774 72.8338L103.92 73.8731C103.92 73.8731 100.829 70.8038 98.7573 77.8228C98.7573 77.8228 98.53 79.0927 99.1794 79.4792C99.1794 79.4792 96.0104 83.9128 95.6564 85.9753C95.6564 85.9753 92.929 89.9704 92.9062 91.1722L92.1334 92.4714L88.8865 90.542L85.068 96.9634C83.1815 96.356 81.7723 96.3138 81.3827 96.9634C80.7008 98.1099 83.3958 100.975 87.4058 103.362C91.4159 105.749 95.2148 106.753 95.8967 105.61C96.3351 104.905 95.4226 103.502 93.692 101.969Z" fill="#6C63FF"/>
<path opacity="0.1" d="M106.602 71.8626C106.331 72.3377 105.933 72.7279 105.453 72.9897L105.212 74.1979C108.174 77.1894 104.43 79.3493 103.527 80.5706C103.434 80.7321 103.305 80.8702 103.151 80.9743C102.996 81.0784 102.82 81.1458 102.635 81.1712C102.451 81.1966 102.263 81.1793 102.086 81.1208C101.909 81.0623 101.748 80.9641 101.615 80.8337C100.852 84.7703 97.1111 87.8104 97.1111 87.8104C96.4325 89.2038 93.9193 92.179 93.192 93.0267L94.3576 93.7218C95.085 92.8741 97.6046 89.8956 98.2768 88.5055C98.2768 88.5055 102.017 85.4653 102.78 81.5287C102.78 81.5287 103.793 82.4837 104.696 81.2624C105.599 80.0411 109.339 77.8844 106.381 74.893L106.618 73.6815C107.099 73.4217 107.497 73.0324 107.768 72.5577C108.417 71.4858 108.346 70.2841 107.631 69.8423C107.417 69.7197 107.168 69.6706 106.923 69.7027C107.033 70.0641 107.061 70.4453 107.005 70.8188C106.95 71.1923 106.812 71.5488 106.602 71.8626V71.8626Z" fill="black"/>
<path opacity="0.1" d="M93.6757 101.865L97.4325 95.5537L96.2733 94.8587L92.5166 101.17C94.2472 102.706 95.1564 104.093 94.7278 104.827C94.0784 105.915 90.6073 105.057 86.8214 102.92C87.0129 103.037 87.2045 103.157 87.4026 103.274C91.4093 105.662 95.2116 106.668 95.8934 105.522C96.3058 104.801 95.3967 103.398 93.6757 101.865Z" fill="black"/>
</g>
<defs>
<clipPath id="clip0">
<rect width="351" height="273" fill="white"/>
</clipPath>
</defs>
</svg>
