<svg width="22" height="28" viewBox="0 0 22 28" fill="none" xmlns="http://www.w3.org/2000/svg">
<path d="M2.40721 0.831138L0.812411 2.15389C0.288391 2.61198 0.0293256 3.14348 0.0353549 3.74718C0.0415086 4.36332 0.311075 4.88326 0.843911 5.30785L11.3463 13.6728L1.01338 22.2459C0.489126 22.6809 0.23 23.2063 0.236152 23.8222C0.242184 24.4262 0.511811 24.9523 1.04488 25.3999L2.66561 26.6734C3.21275 27.1095 3.86535 27.3236 4.6228 27.316C5.39437 27.3083 6.0352 27.081 6.54514 26.6347L20.3861 15.1512C20.9247 14.7274 21.1911 14.2021 21.1848 13.5746C21.1787 12.9589 20.9019 12.4329 20.3546 11.9973L6.28705 0.79245C5.75391 0.367865 5.1088 0.159202 4.35165 0.166764C3.60831 0.174127 2.96044 0.395703 2.40721 0.831138Z" fill="#DB3A34"/>
</svg>
